# xmcd
#
# Track frame offsets:
#	150
#	17642
#	33325
#	49047
#	65035
#	80060
#	99010
#	113490
#	128667
#	143700
#	157377
#	173497
#	189705
#	205715
#	222090
#
# Disc length: 3116 seconds
#
# Revision: 1
# Processed by: cddbd v1.5.1PL2 Copyright (c) Steve Scherf et al.
# Submitted via: audiograbber 1.83.01
#
DISCID=c70c2a0f
DTITLE=Music Maestro - MM6225
DYEAR=1900
DGENRE=Karaoke
TTITLE0=Twain, Shania - Don't Be Stupid
TTITLE1=Carter, Deana - Did I Shave My Legs Ror This?
TTITLE2=Diffie, Joe - Promised Land, Joe
TTITLE3=Tritt, Travis - Still In Love With You
TTITLE4=Atkins, Rhett - More Than Everything
TTITLE5=Kershaw, Sammy - Love Of My Life
TTITLE6=Raybon Brothers and Olivia Newton-John - Falling
TTITLE7=Horn, James - Texas Diary
TTITLE8=Murphy, David Lee - Just Don't Wait Around Til She's Leavin'
TTITLE9=Ranch - Walkin' In The Country
TTITLE10=Tyler, Kris - What A Woman Knows
TTITLE11=Womack, Lee Ann - You've Got To Talk To Me
TTITLE12=McCready, Mindy - If I Don't Stay The Night
TTITLE13=Brickman, Jim and Collin Raye - Gift, The
TTITLE14=Brooks, Garth - Long Neck Bottle
EXTD=As Listed In KJ Pro
EXTT0=
EXTT1=
EXTT2=
EXTT3=
EXTT4=
EXTT5=
EXTT6=
EXTT7=
EXTT8=
EXTT9=
EXTT10=
EXTT11=
EXTT12=
EXTT13=
EXTT14=
PLAYORDER=
